<?xml version="1.0" standalone="no" ?>
<svg
  viewBox="0 0 56 56"
  preserveAspectRatio="xMidYMid meet"
  focusable="false"
  xmlns="http://www.w3.org/2000/svg"
  style="pointer-events: none; display: block; width: 100%; height: 100%; fill: white"
><g>
                <g transform="translate(2.464286, 2.000000)">
                    <g>
                        <g>
                            <g>
                                <path
              d="M50.9785715,20.7628572 C49.1501812,11.8832117 42.8284867,4.59714672 34.2954483,1.53473405 C25.7624099,-1.52767862 16.2503474,0.0758268846 9.19285716,5.76642858 L7.74428573,4.22500001 C7.2581344,3.70074285 6.51419793,3.50211904 5.83142858,3.71428572 C5.14811009,3.92942729 4.64946325,4.51840869 4.55000001,5.22785715 L3.71428572,11.3471429 C3.63460288,11.9046521 3.81220647,12.468202 4.19714287,12.8792857 C4.54716189,13.2567002 5.03812204,13.4719156 5.55285715,13.4735715 L5.68285715,13.4735715 L11.8485715,13.0557143 C12.5641793,13.0082562 13.1885051,12.5529991 13.452462,11.8861606 C13.7164189,11.2193221 13.5728257,10.460097 13.0835715,9.9357143 L11.7185715,8.5057143 C17.7861058,3.7150802 25.9029473,2.41117237 33.1656394,5.06040865 C40.4283314,7.70964494 45.7992374,13.9335232 47.3571429,21.5057143 C47.5363083,22.3843717 48.3177301,23.0095092 49.2142858,22.9914286 C49.3377151,23.0051512 49.4622851,23.0051512 49.5857144,22.9914286 C50.0661069,22.880885 50.4828418,22.5838864 50.7441032,22.1658681 C51.0053647,21.7478497 51.0897156,21.2431112 50.9785715,20.7628572 Z"
            />
                                <path
              d="M45.3792858,38.5357144 L39.2042858,39.0000001 C38.4910745,39.0500513 37.869926,39.5050787 37.6071429,40.1700001 C37.3416092,40.8354386 37.4825353,41.5942715 37.9692858,42.1200001 L39.2971429,43.5407144 C33.2239636,48.3042629 25.1183519,49.5861611 17.871615,46.9291503 C10.6248782,44.2721396 5.26893942,38.0545737 3.71428572,30.4942858 C3.58158709,29.8440624 3.11207844,29.3140251 2.48261915,29.1038338 C1.85315985,28.8936425 1.15937976,29.0352303 0.662619115,29.4752624 C0.165858474,29.9152945 -0.0584129526,30.5869195 0.0742857144,31.2371429 C1.90267609,40.1167884 8.22437055,47.4028534 16.757409,50.465266 C25.2904473,53.5276787 34.8025099,51.9241732 41.8600001,46.2335715 L43.2900001,47.7750001 C43.6422165,48.1547802 44.1370343,48.3702111 44.6550001,48.3692858 C44.8438008,48.3688094 45.0315115,48.3406528 45.2121429,48.2857144 C45.8954614,48.0705728 46.3941083,47.4815914 46.4935715,46.7721429 L47.3571429,40.6528572 C47.4367004,40.0987667 47.2620882,39.5383505 46.8818819,39.1275114 C46.5016755,38.7166723 45.9564408,38.4992445 45.3978572,38.5357144 L45.3792858,38.5357144 Z"
            />
                                <path
              d="M25.5078572,12.0714286 C24.4821855,12.0714286 23.6507143,12.9028998 23.6507143,13.9285715 L23.6507143,16.7142857 L21.7935715,16.7142857 C18.7165564,16.7142857 16.2221429,19.2086993 16.2221429,22.2857143 C16.2221429,25.3627294 18.7165564,27.8571429 21.7935715,27.8571429 L28.2935715,27.8571429 C29.3192432,27.8571429 30.1507143,28.6886141 30.1507143,29.7142858 C30.1507143,30.7399575 29.3192432,31.5714286 28.2935715,31.5714286 L19.9364286,31.5714286 C18.9107569,31.5714286 18.0792857,32.4028998 18.0792857,33.4285715 C18.0792857,34.4542432 18.9107569,35.2857144 19.9364286,35.2857144 L23.6507143,35.2857144 L23.6507143,38.0714286 C23.6507143,39.0971003 24.4821855,39.9285715 25.5078572,39.9285715 C26.5335289,39.9285715 27.3650001,39.0971003 27.3650001,38.0714286 L27.3650001,35.2857144 L28.2935715,35.2857144 C31.3705865,35.2857144 33.8650001,32.7913008 33.8650001,29.7142858 C33.8650001,26.6372707 31.3705865,24.1428572 28.2935715,24.1428572 L21.7935715,24.1428572 C20.7678998,24.1428572 19.9364286,23.311386 19.9364286,22.2857143 C19.9364286,21.2600426 20.7678998,20.4285715 21.7935715,20.4285715 L30.1507143,20.4285715 C31.176386,20.4285715 32.0078572,19.5971003 32.0078572,18.5714286 C32.0078572,17.5457569 31.176386,16.7142857 30.1507143,16.7142857 L27.3650001,16.7142857 L27.3650001,13.9285715 C27.3650001,12.9028998 26.5335289,12.0714286 25.5078572,12.0714286 Z"
            />
                            </g>
                        </g>
                    </g>
                </g>
            </g></svg>
