<?xml version="1.0" standalone="no" ?>
<svg
  viewBox="0 0 56 56"
  preserveAspectRatio="xMidYMid meet"
  focusable="false"
  xmlns="http://www.w3.org/2000/svg"
  style="pointer-events: none; display: block; width: 100%; height: 100%; fill: white"
>
        <g>
        <path
      d="M22.0818367,45.3783674 C22.4412946,45.9428454 23.0641548,46.2846371 23.7333673,46.2846371 C24.4025799,46.2846371 25.0254401,45.9428454 25.384898,45.3783674 L37.3236735,26.2763265 C41.5246723,19.5598884 40.189309,10.781914 34.1810795,5.61857099 C28.1728501,0.455227961 19.2938846,0.455227961 13.2856551,5.61857099 C7.27742573,10.781914 5.9420624,19.5598884 10.1430612,26.2763265 L22.0818367,45.3783674 Z M27.1977551,10.825102 C29.6399363,12.6841419 30.118628,16.1682028 28.2683221,18.6170079 C26.4180162,21.065813 22.9356871,21.5569448 20.4802893,19.7153965 C18.0248916,17.8738482 17.521326,14.3932954 19.3540932,11.9313363 C21.1868605,9.46937716 24.6655926,8.95338412 27.1340816,10.7773469 L27.1977551,10.825102 Z"
      id="contacts-:-pin-:-fill"
    />
    </g>
</svg>
