<?xml version="1.0" standalone="no" ?>
<svg
  viewBox="0 0 56 56"
  preserveAspectRatio="xMidYMid meet"
  focusable="false"
  xmlns="http://www.w3.org/2000/svg"
  style="pointer-events: none; display: block; width: 100%; height: 100%; fill: white">
   <g id="icons-48-general-user_retail-outline" stroke="none" stroke-width="1" fill="none" fill-rule="evenodd">
        <rect id="shape" x="0" y="0" width="48" height="48"></rect>
        <path d="M34.617551,28.8551021 C33.9581907,28.2682713 32.9479532,28.3270682 32.3611225,28.9864286 C31.7742917,29.6457889 31.8330886,30.6560264 32.492449,31.2428572 C35.1871912,33.6544575 36.729557,37.0980135 36.7346939,40.7142858 L36.7346939,43.1020409 L11.2653061,43.1020409 L11.2653061,40.7142858 C11.2653061,33.6811085 16.9668228,27.9795918 24,27.9795918 C26.9552695,27.9795918 29.7894988,26.8056156 31.8791899,24.7159245 C33.9688809,22.6262335 35.1428572,19.7920041 35.1428572,16.8367347 L35.1428572,12.8571428 C35.1428571,6.70311282 30.15403,1.71428584 24,1.71428584 C17.84597,1.71428584 12.8571429,6.70311282 12.8571428,12.8571428 L12.8571428,16.8367347 C12.858637,20.5390027 14.6988712,23.9987623 17.7679592,26.0693878 C11.8953991,28.5679336 8.08276935,34.332304 8.08163262,40.7142858 L8.08163262,44.6938776 C8.08163262,45.5730247 8.79432221,46.2857143 9.67346936,46.2857143 L38.3265306,46.2857143 C39.2056778,46.2857143 39.9183674,45.5730247 39.9183674,44.6938776 L39.9183674,40.7142858 C39.9183674,36.1873193 37.9904023,31.8745886 34.617551,28.8551021 Z M16.0408163,16.8367347 L16.0408163,12.8571428 C16.0408163,8.46140706 19.6042642,4.89795915 24,4.89795915 C28.3957358,4.89795915 31.9591837,8.46140706 31.9591837,12.8571428 L31.9591837,16.8367347 C31.9591837,21.2324705 28.3957358,24.7959184 24,24.7959184 C19.6042642,24.7959184 16.0408163,21.2324705 16.0408163,16.8367347 Z" id="general-:-user_retail-:-outline" fill="white" fill-rule="nonzero"></path>
    </g>
</svg>