<svg width="34" height="36" viewBox="0 0 34 36" fill="none" xmlns="http://www.w3.org/2000/svg">
<path fill-rule="evenodd" clip-rule="evenodd" d="M17.0243 0H16.0191L15.4119 0.0565269L15.1647 0.0756886C10.0959 0.650539 5.44448 3.7394 5.44448 9.17749C5.44448 13.2896 7.66606 16.7847 15.3915 20.3363C15.8469 20.5796 16.3218 20.8038 16.8151 21.0462C20.727 22.9902 24.3138 24.5605 24.3138 27.8869C24.3187 28.823 24.0764 29.7437 23.6122 30.56C25.4348 28.822 26.6113 26.1298 27.1046 22.4853C25.7958 20.1111 23.1159 17.9056 18.2388 15.6628C17.7833 15.4194 17.3085 15.1952 16.8151 14.9528C12.9052 13.0089 9.31643 11.4386 9.31643 8.09293C9.34076 5.79832 10.7527 3.74036 12.9052 2.85988C14.2228 2.38275 15.6201 2.14898 17.0234 2.16814C25.357 2.16814 28.3006 9.04623 28.3006 17.9995C28.3006 26.9902 25.357 33.8309 17.0234 33.8309C8.69073 33.8309 5.72862 26.9902 5.72862 17.9995C5.72473 16.7569 5.78895 15.5152 5.92324 14.2802C4.98128 12.7281 4.50155 10.9471 4.53658 9.14012C4.50252 6.98922 5.25667 4.89868 6.66377 3.25269C2.42885 6.48623 0 11.795 0 18.0005C0 28.2242 6.58689 36 17.0292 36C27.4131 36 34 28.2242 34 18.0005C34 7.83234 27.4131 0.000958084 17.0292 0.000958084" fill="#FAA21B"/>
<mask id="mask0_277_61696" style="mask-type:alpha" maskUnits="userSpaceOnUse" x="0" y="0" width="34" height="36">
<path fill-rule="evenodd" clip-rule="evenodd" d="M17.0243 0H16.0191L15.4119 0.0565269L15.1647 0.0756886C10.0959 0.650539 5.44448 3.7394 5.44448 9.17749C5.44448 13.2896 7.66606 16.7847 15.3915 20.3363C15.8469 20.5796 16.3218 20.8038 16.8151 21.0462C20.727 22.9902 24.3138 24.5605 24.3138 27.8869C24.3187 28.823 24.0764 29.7437 23.6122 30.56C25.4348 28.822 26.6113 26.1298 27.1046 22.4853C25.7958 20.1111 23.1159 17.9056 18.2388 15.6628C17.7833 15.4194 17.3085 15.1952 16.8151 14.9528C12.9052 13.0089 9.31643 11.4386 9.31643 8.09293C9.34076 5.79832 10.7527 3.74036 12.9052 2.85988C14.2228 2.38275 15.6201 2.14898 17.0234 2.16814C25.357 2.16814 28.3006 9.04623 28.3006 17.9995C28.3006 26.9902 25.357 33.8309 17.0234 33.8309C8.69073 33.8309 5.72862 26.9902 5.72862 17.9995C5.72473 16.7569 5.78895 15.5152 5.92324 14.2802C4.98128 12.7281 4.50155 10.9471 4.53658 9.14012C4.50252 6.98922 5.25667 4.89868 6.66377 3.25269C2.42885 6.48623 0 11.795 0 18.0005C0 28.2242 6.58689 36 17.0292 36C27.4131 36 34 28.2242 34 18.0005C34 7.83234 27.4131 0.000958084 17.0292 0.000958084" fill="white"/>
</mask>
<g mask="url(#mask0_277_61696)">
</g>
</svg>
